<svg xmlns="http://www.w3.org/2000/svg" width="1000" height="1000" viewBox="0 0 1000 1000">
<g>
<path d="M 336.22 573.94 C332.81,572.76 328.75,570.13 324.72,566.49 C321.30,563.39 314.67,558.33 310.00,555.24 C305.33,552.16 293.71,544.52 284.18,538.26 C274.61,531.98 267.05,526.36 267.27,525.70 C267.49,525.04 269.22,524.25 271.12,523.95 C276.11,523.13 277.21,522.25 276.00,520.01 C275.45,518.97 275.00,517.69 275.00,517.15 C275.00,516.60 280.06,512.73 286.25,508.54 C292.44,504.34 300.99,498.46 305.26,495.46 C309.52,492.46 313.35,490.00 313.76,490.00 C314.17,490.01 316.98,491.89 320.00,494.19 C330.39,502.10 336.27,505.95 337.13,505.42 C339.13,504.18 336.94,481.00 334.83,481.00 C334.37,481.00 334.00,481.87 334.00,482.94 C334.00,486.72 331.90,486.06 324.50,479.94 C320.05,476.26 316.08,473.75 314.69,473.75 C313.40,473.75 309.69,475.64 306.43,477.96 C286.67,491.99 267.65,505.00 266.89,505.00 C265.41,505.00 265.74,504.25 272.79,491.65 C282.08,475.01 282.36,474.38 281.54,472.32 C280.68,470.15 277.46,458.74 275.48,450.84 C274.10,445.33 274.15,444.94 277.30,435.34 C279.09,429.93 280.90,424.93 281.35,424.23 C281.92,423.31 283.60,423.14 287.32,423.62 C295.43,424.68 299.49,426.49 307.62,432.72 C311.78,435.90 316.88,439.78 318.96,441.34 L 322.74 444.17 L 332.58 442.09 C337.98,440.94 343.78,440.00 345.45,440.00 C348.53,440.00 361.41,442.45 364.42,443.61 C366.20,444.29 370.07,441.91 382.00,432.80 C388.99,427.47 391.67,426.25 403.28,423.17 C408.00,421.92 408.60,422.71 413.00,436.00 L 416.14 445.50 L 414.00 453.00 C412.82,457.12 410.97,463.53 409.88,467.24 L 407.89 473.98 L 415.09 487.74 C419.04,495.31 422.73,502.07 423.28,502.77 C423.83,503.47 424.00,504.33 423.65,504.68 C423.00,505.33 420.77,503.89 392.56,484.59 C383.24,478.22 375.31,473.00 374.94,473.00 C374.56,473.00 370.88,475.70 366.74,479.00 C362.61,482.30 358.73,485.00 358.13,485.00 C357.53,485.00 356.76,483.88 356.41,482.50 C355.36,478.31 354.32,479.68 353.64,486.15 C352.54,496.74 352.84,505.00 354.33,505.00 C355.06,505.00 359.89,501.81 365.08,497.90 C370.26,494.00 375.02,490.59 375.66,490.33 C376.30,490.07 379.00,491.38 381.66,493.24 C384.32,495.10 390.33,499.26 395.00,502.48 C416.78,517.49 417.40,518.02 415.00,519.50 C412.69,520.93 414.19,522.92 418.17,523.71 C420.47,524.16 422.52,525.05 422.73,525.68 C422.94,526.31 416.45,531.22 408.31,536.59 C400.16,541.96 390.17,548.54 386.09,551.23 C382.02,553.91 377.52,556.72 376.09,557.47 C374.67,558.22 370.44,561.72 366.70,565.24 C361.45,570.20 358.46,572.15 353.57,573.83 C346.14,576.38 343.34,576.40 336.22,573.94 ZM 352.00 568.42 C357.12,567.66 360.38,564.99 368.25,555.16 C372.37,550.00 373.48,549.11 374.21,550.41 C375.00,551.83 375.55,551.76 379.30,549.75 C381.61,548.51 383.72,547.23 384.00,546.90 C384.27,546.57 385.53,545.76 386.78,545.10 C390.27,543.26 388.68,542.27 380.97,541.50 C374.11,540.81 373.67,540.59 364.33,533.29 C353.37,524.72 353.04,524.78 353.02,535.29 L 353.00 542.08 L 345.25 541.79 L 337.50 541.50 L 337.84 535.82 C338.20,529.66 337.46,526.00 335.84,526.00 C335.28,526.00 331.58,528.63 327.61,531.85 C317.04,540.42 316.11,540.88 308.22,541.62 C304.25,541.99 301.00,542.59 301.00,542.96 C301.00,543.33 303.97,545.53 307.61,547.85 C312.82,551.17 314.52,551.82 315.62,550.90 C316.72,549.98 317.47,550.34 319.22,552.62 C320.44,554.21 324.03,558.23 327.20,561.56 C332.19,566.82 333.66,567.77 338.23,568.68 C341.13,569.25 344.40,569.58 345.50,569.41 C346.60,569.24 349.52,568.79 352.00,568.42 ZM 323.43 515.02 C324.85,514.49 326.00,513.44 326.00,512.70 C326.00,509.58 314.70,502.41 311.65,503.58 C306.73,505.47 313.32,515.60 319.68,515.94 C320.34,515.97 322.02,515.56 323.43,515.02 ZM 375.90 513.25 C378.05,511.48 380.30,505.63 379.24,504.58 C376.94,502.27 365.90,507.49 364.31,511.64 C362.98,515.10 372.12,516.37 375.90,513.25 ZM 290.63 465.32 C291.02,463.79 290.74,461.33 289.98,459.57 C289.26,457.88 288.48,453.69 288.25,450.25 C287.61,440.76 290.37,440.77 300.69,450.28 C304.75,454.02 305.23,454.21 307.53,452.98 C308.89,452.26 310.00,450.95 310.00,450.08 C310.01,447.85 296.63,435.59 291.83,433.42 C286.35,430.95 284.89,432.13 283.12,440.45 C281.61,447.54 281.97,450.67 285.65,461.92 C287.96,468.99 289.46,470.01 290.63,465.32 ZM 405.29 459.26 C408.34,448.54 408.46,444.96 405.96,438.11 C404.64,434.49 403.14,432.00 402.29,432.00 C399.51,432.00 392.43,436.98 386.06,443.42 C379.73,449.83 379.66,449.96 381.47,451.97 C382.48,453.08 383.72,454.00 384.22,454.00 C384.73,454.00 387.24,451.94 389.82,449.42 C395.16,444.19 399.82,441.42 401.10,442.70 C402.83,444.43 402.67,450.51 400.71,457.64 C399.04,463.70 398.92,465.20 400.01,466.51 C401.88,468.77 403.04,467.18 405.29,459.26 ZM 143.46 566.75 C143.20,566.06 143.10,535.80 143.24,499.50 L 143.50 433.50 L 159.00 433.50 L 174.50 433.50 L 175.00 465.25 C175.27,482.71 175.80,497.11 176.16,497.25 C176.52,497.39 181.21,491.65 186.59,484.50 C191.96,477.35 199.08,468.05 202.42,463.84 C205.77,459.62 212.32,451.14 217.00,444.98 C221.68,438.82 226.40,433.48 227.50,433.11 C229.12,432.55 245.61,432.47 262.37,432.92 L 265.23 433.00 L 263.47 435.75 C262.50,437.26 258.85,442.10 255.36,446.50 C247.12,456.89 233.05,475.03 230.50,478.57 C229.40,480.09 225.46,485.14 221.75,489.79 C218.04,494.44 215.00,498.59 215.00,499.02 C215.00,499.88 222.27,509.94 228.42,517.58 C230.66,520.37 233.62,524.16 235.00,526.01 C236.38,527.86 241.75,534.80 246.95,541.44 C262.74,561.59 266.09,566.31 265.20,567.20 C264.73,567.67 256.07,567.92 245.95,567.77 L 227.55 567.50 L 220.53 558.40 C184.81,512.16 176.74,502.00 175.71,502.00 C175.32,502.00 175.00,516.31 175.00,533.80 C175.00,557.20 174.68,565.92 173.80,566.80 C172.07,568.53 144.12,568.48 143.46,566.75 ZM 438.65 567.25 C438.24,566.57 437.61,480.65 437.89,462.14 C438.00,454.88 438.03,454.79 440.42,455.39 C441.75,455.72 446.73,458.25 451.50,461.00 C456.26,463.75 460.38,466.00 460.65,466.00 C460.92,466.00 463.13,467.37 465.57,469.05 L 470.00 472.10 L 469.99 517.80 C469.98,542.93 469.70,564.51 469.37,565.75 C468.78,567.96 468.47,568.00 453.94,568.00 C445.79,568.00 438.91,567.66 438.65,567.25 ZM 526.74 562.75 C524.31,559.86 519.64,553.90 516.35,549.50 C510.19,541.25 499.55,527.42 488.71,513.58 C475.54,496.78 474.83,495.72 476.20,494.85 C476.92,494.40 488.80,494.02 502.62,494.02 C531.02,494.00 530.91,494.03 535.13,485.75 C537.69,480.72 537.07,475.09 533.40,470.28 C528.74,464.17 527.80,464.00 499.00,464.00 C475.54,464.00 472.53,463.81 469.20,462.14 C467.17,461.11 455.87,454.81 444.11,448.14 C432.34,441.46 422.33,436.00 421.86,436.00 C421.39,436.00 421.00,435.55 421.00,435.00 C421.00,433.35 528.25,433.69 534.50,435.36 C549.96,439.49 562.05,452.23 566.55,469.13 C569.29,479.45 567.51,490.84 561.33,502.50 C558.34,508.15 548.53,517.13 541.75,520.43 C538.59,521.97 536.00,523.59 536.00,524.01 C536.00,524.44 540.78,530.80 546.63,538.15 C562.15,557.64 568.15,565.95 567.48,567.04 C567.13,567.60 559.38,568.00 549.02,568.00 L 531.15 568.00 L 526.74 562.75 ZM 585.38 566.81 C584.98,566.16 584.46,540.74 584.22,510.32 C583.83,459.75 583.93,454.96 585.43,454.39 C587.09,453.75 592.41,456.30 607.48,464.98 L 615.50 469.60 L 615.79 476.71 C615.97,480.99 616.60,484.25 617.38,484.90 C618.25,485.62 632.36,486.06 660.08,486.24 L 701.48 486.50 L 701.56 499.78 C701.62,508.77 701.27,513.36 700.48,514.02 C699.78,514.60 685.03,515.08 664.16,515.22 L 629.00 515.44 L 623.12 509.62 C619.89,506.42 617.02,504.18 616.75,504.65 C616.47,505.12 616.17,512.30 616.06,520.62 C615.90,533.83 616.08,535.82 617.52,536.37 C618.42,536.72 639.35,537.00 664.02,537.00 C688.70,537.00 709.11,537.36 709.38,537.80 C709.92,538.68 698.16,556.28 691.16,565.06 L 688.82 568.00 L 637.47 568.00 C598.92,568.00 585.94,567.70 585.38,566.81 ZM 717.54 567.07 C716.70,565.70 724.68,554.62 746.02,527.50 C758.41,511.76 767.00,500.32 767.00,499.56 C767.00,499.00 754.10,481.57 750.31,477.00 C749.62,476.17 745.23,470.55 740.54,464.50 C735.86,458.45 731.66,453.05 731.22,452.50 C724.00,443.48 717.09,433.66 717.50,433.00 C718.15,431.95 754.10,432.33 755.84,433.40 C756.98,434.10 768.80,449.36 778.00,461.99 C779.92,464.63 786.80,473.59 793.28,481.90 C799.76,490.20 805.33,497.69 805.65,498.53 C806.03,499.52 801.99,505.67 794.31,515.79 C767.13,551.58 755.75,566.06 754.17,566.84 C751.49,568.17 718.35,568.37 717.54,567.07 ZM 819.99 567.18 C819.17,566.92 818.28,566.39 818.00,566.00 C817.72,565.62 816.06,563.55 814.30,561.40 C807.45,553.06 800.58,544.24 796.33,538.30 L 791.90 532.10 L 801.00 520.05 C806.01,513.42 810.65,508.00 811.30,508.00 C812.64,508.00 813.34,508.85 828.03,528.00 C850.96,557.92 856.16,565.01 855.84,565.95 C855.49,566.95 822.78,568.08 819.99,567.18 ZM 809.37 489.77 C806.23,486.24 795.47,471.75 794.13,469.24 C793.21,467.53 793.20,466.49 794.09,464.83 C795.61,461.99 809.12,443.95 814.75,437.25 L 819.15 432.00 L 837.02 432.00 C848.54,432.00 855.11,432.38 855.54,433.06 C855.90,433.65 851.54,440.23 845.85,447.69 C840.16,455.15 830.85,467.39 825.17,474.88 C811.32,493.15 811.90,492.61 809.37,489.77 ZM 619.00 462.95 C618.17,462.43 608.72,457.00 598.00,450.88 C587.28,444.76 576.47,438.57 574.00,437.12 L 569.50 434.50 L 628.00 434.00 C660.17,433.73 687.07,433.66 687.77,433.86 C689.71,434.42 710.18,461.90 709.49,463.02 C708.69,464.31 621.07,464.24 619.00,462.95 ZM 335.93 557.75 C333.54,554.45 332.98,552.83 333.43,550.50 C334.38,545.54 337.23,544.00 345.36,544.03 C353.15,544.07 355.32,545.07 356.96,549.40 C358.40,553.17 358.46,553.00 354.12,557.75 C350.43,561.78 349.94,562.00 344.62,562.00 C339.17,562.00 338.92,561.88 335.93,557.75 Z" fill="rgba(0,0,0,1)"/>
</g>
</svg>