<svg xmlns="http://www.w3.org/2000/svg" width="1000" height="1000" viewBox="0 0 1000 1000">
<g>
<path d="M 310.36 683.49 C310.00,682.55 312.97,677.72 318.23,670.74 C329.77,655.40 350.14,627.84 364.43,608.25 C372.44,597.28 376.89,592.00 378.15,592.00 C380.27,592.00 446.00,635.52 446.00,636.92 C446.00,637.99 421.31,672.11 413.92,681.25 L 410.89 685.00 L 360.91 685.00 C317.21,685.00 310.86,684.81 310.36,683.49 ZM 588.06 682.75 C587.00,681.51 582.08,674.88 577.12,668.00 C572.16,661.12 567.72,655.05 567.26,654.50 C566.79,653.95 564.26,650.42 561.64,646.66 C555.83,638.33 555.03,639.63 573.85,626.86 C581.36,621.77 587.65,617.24 587.83,616.80 C588.02,616.36 588.61,616.00 589.15,616.00 C589.70,616.00 592.19,614.54 594.70,612.75 C597.20,610.96 600.26,608.83 601.50,608.00 C602.73,607.17 608.27,603.46 613.80,599.75 C619.33,596.04 624.28,593.00 624.79,593.00 C625.30,593.00 628.11,596.26 631.03,600.25 C633.94,604.24 637.97,609.75 639.98,612.50 C641.99,615.25 648.22,623.69 653.82,631.25 C659.42,638.81 668.58,651.19 674.18,658.75 C679.78,666.31 686.12,674.84 688.27,677.70 C690.42,680.57 691.88,683.38 691.53,683.95 C691.09,684.66 674.44,685.00 640.43,685.00 L 589.99 685.00 L 588.06 682.75 ZM 496.00 654.51 C474.84,649.43 475.87,649.93 466.33,639.99 C459.70,633.08 454.68,629.05 445.54,623.30 C438.92,619.13 432.71,615.04 431.74,614.20 C430.78,613.36 429.12,612.19 428.07,611.59 C422.25,608.30 346.00,556.62 346.00,555.98 C346.00,554.73 348.10,554.26 359.83,552.89 C365.97,552.17 371.00,551.34 371.00,551.04 C370.99,550.74 369.00,548.31 366.57,545.63 C364.14,542.95 362.38,540.25 362.65,539.63 C362.92,539.01 367.72,535.42 373.32,531.66 C378.92,527.90 387.33,522.14 392.00,518.85 C396.67,515.57 401.62,512.14 403.00,511.22 C404.38,510.31 407.08,508.38 409.00,506.95 C410.92,505.52 416.55,501.49 421.50,498.01 C426.45,494.53 432.86,489.91 435.74,487.73 C439.60,484.82 441.57,483.94 443.24,484.38 C444.48,484.72 450.98,489.38 457.67,494.75 C480.54,513.08 485.03,516.50 486.27,516.50 C487.79,516.50 488.46,493.49 487.46,475.20 C486.72,461.64 485.61,460.06 482.97,468.83 C482.11,471.67 480.92,474.48 480.32,475.08 C479.34,476.06 469.58,468.61 449.01,451.19 L 445.52 448.23 L 441.01 451.27 C438.53,452.95 433.58,456.42 430.00,458.99 C421.43,465.15 401.76,479.11 391.96,486.00 C387.65,489.02 378.81,495.29 372.31,499.93 C365.82,504.57 358.48,509.73 356.00,511.40 C353.52,513.07 350.52,515.29 349.32,516.33 C348.12,517.37 346.63,518.04 346.00,517.83 C344.77,517.42 349.30,508.27 362.23,485.00 C363.61,482.52 366.66,476.90 369.01,472.50 C371.36,468.10 374.83,461.66 376.72,458.19 C378.91,454.19 379.91,451.27 379.47,450.19 C379.08,449.26 377.92,445.01 376.88,440.75 C372.82,424.04 371.10,417.12 368.60,407.52 C365.50,395.64 365.40,392.49 367.88,385.10 C370.01,378.74 371.68,373.37 375.54,360.50 C377.02,355.55 378.72,350.89 379.32,350.15 C381.00,348.07 389.64,349.55 409.37,355.28 C414.82,356.86 419.12,359.79 438.95,375.39 L 456.40 389.13 L 463.95 388.44 C468.10,388.05 472.40,387.40 473.51,386.99 C474.61,386.57 479.79,385.68 485.01,385.00 C490.23,384.33 495.80,383.37 497.40,382.89 C501.14,381.74 504.92,381.76 510.24,382.96 C512.58,383.48 518.33,384.45 523.00,385.10 C527.67,385.75 532.40,386.61 533.50,387.01 C534.60,387.41 538.88,388.05 543.00,388.43 L 550.50 389.11 L 566.00 377.02 C574.53,370.37 582.17,364.38 583.00,363.71 C587.29,360.22 594.82,355.85 597.95,355.02 C609.05,352.09 619.02,349.98 622.78,349.76 C626.45,349.54 627.27,349.86 628.46,352.00 C629.63,354.09 633.46,365.95 637.03,378.50 C637.50,380.15 638.78,384.42 639.86,388.00 C641.81,394.41 641.81,394.60 639.96,401.50 C638.93,405.35 637.13,412.33 635.97,417.00 C633.27,427.87 630.37,438.92 628.27,446.36 L 626.62 452.22 L 629.22 456.86 C630.65,459.41 633.58,464.88 635.74,469.00 C637.89,473.12 641.13,479.20 642.93,482.50 C644.74,485.80 647.97,491.76 650.11,495.75 C652.25,499.74 655.82,506.38 658.05,510.50 C660.59,515.21 661.61,518.00 660.80,517.99 C660.08,517.98 656.93,516.07 653.80,513.74 C650.66,511.41 644.87,507.25 640.94,504.50 C637.01,501.75 628.77,495.99 622.64,491.71 C616.51,487.42 609.03,482.14 606.00,479.97 C598.13,474.32 581.52,462.63 574.50,457.79 C571.20,455.51 568.28,453.38 568.00,453.05 C567.09,451.97 562.09,449.00 561.17,449.00 C560.67,449.00 553.00,455.08 544.11,462.50 C535.22,469.92 527.60,476.00 527.16,476.00 C526.72,476.00 525.77,473.83 525.05,471.18 C523.77,466.48 521.43,462.22 520.61,463.07 C519.80,463.92 519.51,517.00 520.32,517.00 C521.06,517.00 530.27,510.23 535.50,505.85 C536.60,504.92 539.75,502.36 542.50,500.16 C545.25,497.96 550.88,493.42 555.00,490.09 C559.12,486.75 563.17,484.03 564.00,484.05 C564.83,484.06 570.45,487.67 576.50,492.07 C582.55,496.47 592.67,503.67 599.00,508.08 C605.33,512.48 615.00,519.25 620.50,523.11 C626.00,526.98 633.30,532.02 636.72,534.32 C640.14,536.62 643.18,539.10 643.47,539.84 C643.77,540.58 642.21,543.23 640.00,545.73 C637.80,548.23 636.00,550.67 636.00,551.14 C636.00,551.61 637.69,552.03 639.75,552.06 C647.57,552.19 658.47,554.45 658.72,556.00 C658.88,556.98 644.19,567.40 616.41,586.00 C593.00,601.67 568.47,618.13 561.89,622.56 C554.55,627.50 546.35,634.18 540.71,639.80 C531.69,648.77 531.32,649.02 523.50,651.12 C506.13,655.78 502.93,656.17 496.00,654.51 ZM 515.75 640.44 C518.09,639.66 521.81,638.73 524.02,638.38 C529.00,637.58 536.93,629.97 550.72,612.73 C559.68,601.53 562.75,599.18 561.40,604.55 C560.18,609.41 563.60,608.28 576.93,599.40 C586.06,593.31 589.73,590.33 589.01,589.61 C588.43,589.03 582.20,588.32 575.15,588.03 L 562.33 587.50 L 555.01 581.58 C550.98,578.32 541.60,570.58 534.16,564.38 C526.73,558.18 520.34,553.29 519.98,553.51 C519.61,553.74 519.03,561.17 518.68,570.02 C518.33,578.87 517.79,586.54 517.47,587.06 C516.83,588.08 492.16,588.38 489.58,587.39 C488.23,586.87 488.00,584.42 488.00,570.45 C488.00,560.39 487.61,553.88 486.98,553.49 C486.05,552.91 480.65,556.89 472.50,564.13 C468.34,567.83 451.43,581.94 447.36,585.12 C444.22,587.56 443.14,587.77 430.96,588.21 C423.79,588.46 417.45,589.15 416.87,589.73 C416.12,590.48 419.71,593.35 428.96,599.40 C436.19,604.13 442.53,608.00 443.05,608.00 C443.57,608.00 444.00,606.45 444.00,604.56 C444.00,597.84 445.09,598.63 455.63,613.00 C458.26,616.58 464.47,623.58 469.45,628.57 L 478.50 637.64 L 487.00 639.78 C491.67,640.96 496.62,642.12 498.00,642.37 C501.75,643.03 510.95,642.03 515.75,640.44 ZM 460.05 534.00 C462.00,533.46 464.44,532.40 465.47,531.65 C467.24,530.35 467.07,529.99 462.42,525.00 C457.06,519.25 451.46,515.26 446.00,513.29 C440.91,511.46 439.25,511.70 437.40,514.52 C435.97,516.69 435.92,517.64 436.99,521.47 C438.57,527.10 444.15,533.74 447.77,534.29 C452.93,535.07 456.51,534.99 460.05,534.00 ZM 558.50 533.90 C564.28,532.33 567.48,528.85 569.01,522.45 C571.56,511.85 567.82,509.60 556.57,514.97 C550.18,518.02 540.00,527.49 540.00,530.38 C540.00,534.10 550.46,536.09 558.50,533.90 ZM 396.87 434.65 C399.21,432.15 399.22,432.05 397.62,427.31 C396.72,424.66 395.09,419.70 393.99,416.28 C390.74,406.14 391.68,387.83 395.53,386.35 C396.68,385.91 402.07,388.83 404.00,390.95 C404.27,391.25 407.42,393.96 411.00,396.98 C414.58,399.99 419.30,404.15 421.50,406.22 C423.70,408.29 426.07,409.98 426.77,409.99 C428.99,410.01 436.00,404.80 436.00,403.14 C436.00,400.74 409.15,374.86 403.97,372.26 C399.42,369.98 391.45,367.00 389.89,367.00 C388.84,367.00 386.36,372.74 384.48,379.50 C379.22,398.44 379.17,394.44 384.96,416.50 C386.12,420.90 387.70,427.32 388.48,430.77 C389.26,434.21 390.18,437.48 390.51,438.02 C391.29,439.28 393.76,437.97 396.87,434.65 ZM 617.28 433.25 C618.19,430.64 619.37,426.70 619.89,424.50 C620.41,422.30 621.99,416.05 623.42,410.62 C624.84,405.19 626.00,399.29 626.00,397.52 C626.00,394.18 622.29,378.54 619.83,371.50 C618.18,366.77 616.76,366.60 607.51,370.07 C602.25,372.05 599.61,374.21 586.01,387.69 L 570.50 403.05 L 574.42 406.53 C576.57,408.44 579.12,410.00 580.09,410.00 C581.65,410.00 585.79,406.62 596.96,396.20 C598.91,394.39 602.90,391.25 605.83,389.23 C610.98,385.68 611.21,385.62 612.33,387.53 C614.17,390.64 614.75,393.94 614.89,402.00 C615.01,409.33 614.13,413.29 609.89,424.52 C608.85,427.28 608.00,430.18 608.00,430.96 C608.00,432.68 612.91,438.00 614.49,438.00 C615.10,438.00 616.36,435.86 617.28,433.25 ZM 351.41 371.31 C338.95,354.41 331.48,344.26 327.65,339.00 C325.45,335.98 322.46,331.92 321.01,330.00 C316.08,323.45 312.00,317.14 312.00,316.07 C312.00,315.32 327.84,315.00 364.37,315.00 L 416.73 315.00 L 419.28 318.75 C423.69,325.26 433.15,338.67 442.28,351.38 C444.60,354.61 446.95,357.95 447.50,358.79 C448.05,359.63 450.86,363.67 453.75,367.77 C462.91,380.76 461.50,380.33 440.38,363.75 C431.09,356.46 422.15,349.60 420.50,348.51 C417.70,346.67 408.82,343.95 399.50,342.09 C397.30,341.65 392.35,340.52 388.50,339.58 C373.30,335.86 374.05,335.87 371.92,339.37 C370.87,341.09 370.01,343.05 370.00,343.73 C370.00,344.40 369.05,348.00 367.90,351.73 C366.74,355.45 364.89,361.42 363.78,365.00 C360.18,376.62 359.49,378.34 358.32,378.73 C357.68,378.94 354.57,375.60 351.41,371.31 ZM 542.00 376.35 C542.00,374.77 543.96,371.83 552.25,360.97 C554.31,358.27 556.00,355.79 556.00,355.47 C556.00,355.15 557.27,353.22 558.82,351.19 C562.33,346.61 570.61,335.20 580.56,321.25 L 585.02 315.00 L 637.51 315.00 C674.83,315.00 690.00,315.32 690.00,316.09 C690.00,316.69 686.93,321.31 683.19,326.34 C675.67,336.44 659.00,359.10 656.25,362.95 C651.52,369.58 648.40,373.38 647.44,373.69 C646.40,374.03 644.45,368.90 639.96,354.00 C638.72,349.88 637.33,345.60 636.87,344.50 C636.41,343.40 635.58,341.23 635.02,339.69 C634.05,337.01 633.79,336.91 629.25,337.50 C624.13,338.18 611.86,340.96 600.34,344.07 C596.40,345.13 592.53,346.00 591.74,346.00 C589.95,346.00 580.46,352.79 562.50,366.94 C551.24,375.81 547.86,377.98 545.25,377.99 C542.89,378.00 542.00,377.55 542.00,376.35 ZM 495.24 627.32 C491.46,626.93 490.41,626.20 486.01,620.91 C483.28,617.63 480.53,613.99 479.91,612.82 C478.00,609.26 479.60,602.31 483.58,596.89 L 487.17 592.00 L 503.08 592.00 L 518.98 592.00 L 522.47 596.75 C525.55,600.95 525.95,602.22 525.98,607.69 C526.00,613.72 525.87,614.04 520.92,619.69 C518.13,622.89 515.17,625.88 514.36,626.34 C512.58,627.34 501.20,627.92 495.24,627.32 Z" fill="rgba(0,0,0,1)"/>
</g>
</svg>