<svg xmlns="http://www.w3.org/2000/svg" width="1000" height="1000" viewBox="0 0 1000 1000">
<g>
<path d="M 328.00 565.14 C303.40,556.39 287.19,537.54 283.09,512.92 C279.11,488.95 285.96,466.55 302.02,451.00 C310.12,443.16 317.49,438.60 328.16,434.83 C335.60,432.19 337.20,432.00 351.52,432.00 C365.16,432.00 367.78,432.28 374.70,434.49 C392.86,440.30 407.95,452.46 415.35,467.26 C419.55,475.65 420.43,478.47 422.62,490.50 C424.23,499.32 423.91,504.29 420.91,516.80 C417.56,530.78 412.30,539.79 401.78,549.53 C393.69,557.03 386.10,561.57 375.67,565.14 C368.01,567.77 366.51,567.94 351.50,567.88 C336.80,567.81 334.89,567.59 328.00,565.14 ZM 361.07 538.60 C368.65,536.78 373.12,534.53 378.49,529.80 C384.03,524.92 387.17,519.66 389.91,510.64 C392.55,502.00 392.54,496.99 389.90,488.36 C386.53,477.35 382.56,471.91 373.92,466.45 C357.27,455.94 335.68,458.43 323.47,472.28 C315.96,480.79 314.09,486.32 314.05,500.00 C314.02,510.20 314.30,512.11 316.52,516.87 C324.72,534.49 342.33,543.08 361.07,538.60 ZM 153.05 564.09 C151.89,561.93 151.53,446.54 152.65,437.22 L 153.28 431.95 L 168.39 432.22 L 183.50 432.50 L 183.50 499.00 L 183.50 565.50 L 168.80 565.78 C155.07,566.03 154.03,565.92 153.05,564.09 ZM 238.08 562.25 C232.88,555.84 228.58,550.35 226.50,547.47 C223.96,543.97 209.81,525.63 206.07,521.00 C202.17,516.18 191.24,501.98 189.38,499.32 C187.79,497.04 188.30,495.12 191.52,491.17 C195.94,485.76 206.48,472.32 212.04,465.00 C215.59,460.33 218.76,456.27 219.08,456.00 C219.39,455.73 220.74,453.90 222.08,451.94 C223.41,449.98 227.43,444.69 231.00,440.19 L 237.50 432.00 L 255.25 432.00 C266.08,432.00 273.00,432.38 273.00,432.97 C273.00,433.96 264.58,445.29 253.57,459.13 C240.08,476.07 230.38,488.54 228.16,491.75 L 225.83 495.15 L 228.38 498.82 C229.79,500.85 236.46,509.52 243.22,518.09 C267.76,549.26 278.00,562.89 278.00,564.43 C278.00,565.80 275.65,566.00 259.56,566.00 L 241.11 566.00 L 238.08 562.25 ZM 444.00 510.03 C444.00,469.52 444.31,454.00 445.11,454.00 C447.40,454.00 473.74,468.78 474.17,470.31 C474.35,470.96 474.27,492.65 474.00,518.50 L 473.50 565.50 L 458.75 565.78 L 444.00 566.05 L 444.00 510.03 ZM 533.61 563.52 C532.35,562.16 526.08,554.17 519.69,545.77 C513.30,537.37 503.91,525.10 498.84,518.50 C482.89,497.75 482.01,496.53 482.00,495.25 C482.00,494.28 487.43,494.00 505.80,494.00 L 529.61 494.00 L 534.23 491.07 C539.46,487.75 540.66,485.98 541.59,480.19 C542.46,474.70 539.19,467.91 534.18,464.79 C530.64,462.59 529.47,462.48 503.00,462.00 L 475.50 461.50 L 451.25 447.68 C437.91,440.08 427.00,433.44 427.00,432.93 C427.00,432.37 447.75,432.00 479.27,432.00 C528.85,432.00 531.92,432.11 538.92,434.04 C548.53,436.71 553.70,439.83 560.31,446.97 C567.77,455.02 571.17,463.54 571.77,475.65 C572.15,483.28 571.86,485.94 569.97,491.65 C565.77,504.40 557.20,514.01 545.23,519.40 C542.90,520.45 541.00,521.75 541.00,522.29 C541.00,522.83 543.40,526.25 546.34,529.89 C560.43,547.34 572.08,563.36 571.59,564.62 C571.17,565.72 567.53,566.00 553.48,566.00 C536.06,566.00 535.88,565.98 533.61,563.52 ZM 590.00 509.00 C590.00,477.65 590.19,452.00 590.42,452.00 C590.65,452.00 594.82,454.30 599.67,457.11 C604.53,459.91 611.07,463.51 614.21,465.10 C617.35,466.69 620.39,468.86 620.96,469.93 C621.53,471.00 622.00,474.59 622.00,477.92 L 622.00 483.98 L 663.25 484.24 L 704.50 484.50 L 704.50 499.00 L 704.50 513.50 L 668.61 513.76 L 632.73 514.03 L 627.41 508.26 L 622.09 502.50 L 621.94 511.00 C621.86,515.67 621.65,522.41 621.47,525.97 C621.29,529.53 621.51,533.09 621.95,533.88 C622.65,535.12 629.43,535.30 668.28,535.10 C695.52,534.96 714.03,535.24 714.37,535.79 C714.96,536.74 709.94,544.43 699.72,558.25 L 693.99 566.00 L 641.99 566.00 L 590.00 566.00 L 590.00 509.00 ZM 717.56 565.09 C717.25,564.59 718.71,562.01 720.81,559.34 C722.91,556.68 729.42,548.20 735.27,540.50 C741.13,532.80 750.70,520.28 756.54,512.67 C762.37,505.06 766.94,498.29 766.69,497.63 C766.24,496.47 752.85,478.61 732.46,452.00 C723.06,439.72 719.00,433.89 719.00,432.63 C719.00,431.74 755.28,431.87 756.52,432.77 C757.88,433.74 765.03,442.97 785.35,470.00 C794.66,482.38 803.11,493.43 804.14,494.56 C805.16,495.70 806.00,497.15 806.00,497.79 C806.00,498.89 790.17,520.34 786.28,524.50 C785.25,525.60 778.51,534.38 771.29,544.00 C764.07,553.62 757.21,562.51 756.04,563.75 C754.00,565.92 753.29,566.00 736.02,566.00 C726.17,566.00 717.87,565.59 717.56,565.09 ZM 818.80 564.77 C817.90,564.07 815.63,561.47 813.77,559.00 C811.90,556.53 806.21,549.18 801.11,542.68 C796.01,536.18 792.05,530.33 792.30,529.68 C792.56,529.03 795.86,524.58 799.63,519.79 C803.41,515.00 807.31,509.94 808.30,508.54 C809.28,507.14 810.66,506.00 811.35,506.00 C812.04,506.00 818.95,514.44 826.71,524.75 C834.46,535.06 844.24,547.96 848.43,553.41 C852.63,558.87 855.90,563.82 855.70,564.41 C855.14,566.09 820.93,566.42 818.80,564.77 ZM 802.00 478.89 C797.33,472.80 793.13,467.18 792.68,466.38 C792.11,465.37 794.35,461.80 800.18,454.40 C804.76,448.60 810.32,441.30 812.54,438.18 L 816.58 432.50 L 835.79 432.23 C848.07,432.05 855.00,432.32 855.00,432.95 C855.00,433.50 849.58,441.05 842.97,449.73 C836.35,458.40 826.79,471.01 821.72,477.74 C816.65,484.48 812.05,489.98 811.50,489.97 C810.95,489.96 806.67,484.98 802.00,478.89 ZM 599.52 447.95 C586.33,440.34 575.38,433.63 575.18,433.05 C574.94,432.32 592.95,432.00 633.70,432.00 L 692.57 432.00 L 702.85 445.60 C708.51,453.08 713.38,459.83 713.68,460.60 C714.13,461.79 707.40,461.99 668.86,461.90 L 623.50 461.80 L 599.52 447.95 Z" fill="rgba(0,0,0,1)"/>
</g>
</svg>