<svg xmlns="http://www.w3.org/2000/svg" width="1000" height="1000" viewBox="0 0 1000 1000">
    <g>
        <path d="M 332.50 568.49 C319.29,566.13 311.53,562.65 300.89,554.32 C284.87,541.77 276.00,522.42 276.00,500.00 C276.00,484.87 281.57,467.24 289.62,456.91 C297.09,447.32 308.25,439.48 321.33,434.63 C329.28,431.68 329.98,431.60 347.50,431.55 C363.89,431.51 366.12,431.71 372.50,433.88 C394.72,441.42 409.27,455.73 416.35,477.00 C424.34,500.96 418.13,531.30 401.83,548.02 C384.63,565.64 358.95,573.23 332.50,568.49 ZM 367.78 534.61 C378.00,529.43 383.79,521.04 386.70,507.20 C388.30,499.57 388.30,498.73 386.65,491.71 C381.35,469.24 365.79,459.23 340.58,462.05 C327.59,463.51 317.41,470.64 312.14,482.00 C309.83,486.97 309.58,488.70 309.58,500.00 C309.58,511.50 309.80,512.95 312.27,518.14 C317.78,529.71 326.80,536.33 339.85,538.37 C349.41,539.87 360.28,538.41 367.78,534.61 ZM 143.47 566.78 C143.20,566.07 143.10,535.80 143.24,499.50 L 143.50 433.50 L 159.00 433.50 L 174.50 433.50 L 174.76 465.25 C174.97,489.70 175.31,496.98 176.26,496.92 C176.94,496.88 182.00,490.78 187.50,483.37 C193.00,475.97 204.06,461.49 212.09,451.20 L 226.68 432.50 L 245.02 432.23 C255.10,432.08 263.73,432.33 264.20,432.80 C264.66,433.26 261.99,437.61 258.27,442.46 C254.55,447.32 250.61,452.46 249.52,453.89 C248.43,455.33 244.03,461.00 239.76,466.50 C235.48,472.00 231.13,477.62 230.09,479.00 C229.06,480.38 225.24,485.29 221.61,489.91 C217.97,494.54 215.00,498.63 215.00,499.00 C215.00,499.90 231.54,521.80 250.49,546.00 C263.62,562.76 265.00,564.70 265.00,566.43 C265.00,567.80 262.74,567.98 247.25,567.87 C237.49,567.81 228.76,567.37 227.86,566.90 C226.96,566.43 222.91,561.65 218.86,556.28 C214.81,550.91 211.05,545.99 210.50,545.36 C209.95,544.73 204.77,538.02 199.00,530.45 C180.24,505.86 176.84,501.76 175.92,502.68 C175.43,503.17 174.91,517.96 174.76,535.54 L 174.50 567.50 L 159.23 567.78 C147.56,567.99 143.84,567.75 143.47,566.78 ZM 438.67 567.33 C438.30,566.97 438.00,541.54 438.00,510.83 C438.00,466.83 438.26,455.00 439.25,455.00 C439.94,455.00 444.98,457.48 450.45,460.50 C455.93,463.52 460.57,466.00 460.77,466.00 C460.98,466.00 463.13,467.37 465.57,469.05 L 470.00 472.10 L 470.00 518.85 C470.00,553.88 469.70,565.90 468.80,566.80 C467.51,568.09 439.91,568.58 438.67,567.33 ZM 528.07 564.27 C524.29,559.64 508.36,539.08 497.79,525.20 C493.48,519.54 486.78,510.84 482.90,505.87 C478.85,500.67 476.08,496.23 476.39,495.42 C476.84,494.25 481.34,494.00 502.39,494.00 L 527.85 494.00 L 530.80 491.51 C534.30,488.57 537.00,483.30 537.00,479.41 C537.00,474.52 533.16,468.12 528.93,465.97 C525.39,464.16 522.94,464.00 498.79,463.99 L 472.50 463.98 L 468.00 461.37 C461.04,457.35 448.18,450.15 441.00,446.26 C437.42,444.32 431.35,440.89 427.50,438.62 L 420.50 434.50 L 433.50 434.21 C440.65,434.06 466.30,434.06 490.50,434.21 L 534.50 434.50 L 541.00 437.59 C548.66,441.22 558.23,449.63 561.28,455.40 C571.97,475.61 569.17,496.66 553.80,511.67 C548.71,516.64 540.18,522.00 537.35,522.00 C534.76,522.00 536.06,524.57 543.25,533.65 C558.73,553.20 567.50,564.96 567.50,566.21 C567.50,567.21 563.39,567.56 549.33,567.77 L 531.15 568.04 L 528.07 564.27 ZM 585.23 566.36 C584.04,564.08 583.60,456.04 584.77,454.28 C585.64,452.97 590.93,455.45 607.02,464.71 L 615.50 469.60 L 615.80 476.51 C615.97,480.31 616.61,484.04 617.24,484.79 C618.19,485.93 625.48,486.12 658.97,485.89 C681.29,485.73 700.02,485.89 700.58,486.24 C701.75,486.97 701.78,511.93 700.61,513.82 C700.07,514.69 690.49,515.00 664.11,515.00 L 628.34 515.00 L 623.18 509.50 C620.34,506.48 617.56,504.00 617.01,504.00 C616.37,504.00 616.00,509.94 616.00,520.00 C616.00,534.55 616.16,536.01 617.75,536.06 C618.71,536.10 639.65,536.16 664.27,536.19 C690.82,536.22 709.27,536.63 709.61,537.18 C709.93,537.69 706.90,542.93 702.89,548.81 C695.09,560.24 695.22,560.05 691.76,564.33 L 689.46 567.16 L 637.83 567.70 C588.16,568.21 586.16,568.16 585.23,566.36 ZM 718.12 567.14 C716.59,566.12 718.66,562.70 727.64,551.37 C730.31,548.00 734.30,542.71 736.50,539.62 C738.70,536.54 741.23,534.01 742.11,534.01 C743.98,534.00 767.00,548.88 767.00,550.10 C767.00,551.29 758.50,563.24 756.12,565.39 C754.33,567.02 751.87,567.30 736.78,567.66 C727.21,567.88 718.89,567.65 718.12,567.14 ZM 836.14 567.25 C819.61,566.97 818.69,566.85 816.90,564.73 C814.01,561.32 808.00,552.26 808.01,551.33 C808.01,550.69 823.55,539.78 831.61,534.75 C833.24,533.74 856.44,564.40 855.64,566.50 C855.32,567.32 854.71,567.90 854.28,567.78 C853.85,567.65 845.69,567.42 836.14,567.25 ZM 780.00 554.88 C778.62,554.34 775.70,552.17 773.50,550.06 C771.30,547.95 760.78,540.47 750.11,533.45 C732.58,521.89 730.90,520.54 732.56,519.34 C733.56,518.60 735.19,518.00 736.18,518.00 C737.43,518.00 737.90,517.34 737.74,515.84 C737.48,513.49 738.69,512.46 755.45,500.67 C760.79,496.92 765.71,494.06 766.38,494.32 C767.05,494.57 770.60,497.08 774.26,499.89 C777.93,502.70 781.39,505.00 781.96,505.00 C783.11,505.00 783.38,495.15 782.38,490.12 C781.74,486.95 780.00,485.76 780.00,488.50 C780.00,490.64 779.54,490.46 773.50,486.00 C770.52,483.80 767.33,482.00 766.41,482.00 C764.92,482.00 754.69,488.86 739.29,500.17 C736.43,502.28 733.62,504.00 733.04,504.00 C731.60,504.00 731.74,501.83 733.34,499.47 C736.96,494.15 742.00,483.53 742.00,481.23 C742.00,479.81 741.57,477.26 741.05,475.57 C737.74,464.82 737.25,461.36 738.48,457.43 C739.16,455.27 740.30,451.59 741.02,449.25 C741.73,446.91 742.83,445.00 743.45,445.00 C748.36,445.00 756.93,448.57 762.39,452.88 C771.37,459.98 771.47,460.01 780.39,458.76 C785.97,457.98 790.48,457.97 796.29,458.74 L 804.41 459.81 L 808.96 456.72 C811.46,455.02 813.72,453.36 814.00,453.02 C815.36,451.35 820.94,448.24 824.50,447.17 C832.31,444.81 833.28,445.06 835.71,450.00 C838.60,455.90 838.73,465.50 836.02,473.59 C833.68,480.61 833.55,482.89 835.34,485.53 C838.31,489.92 845.08,503.25 844.79,504.14 C844.51,504.97 818.37,487.45 814.01,483.51 C811.32,481.08 808.54,481.74 803.36,486.04 C800.59,488.34 797.78,489.89 796.81,489.65 C795.89,489.41 794.88,489.88 794.56,490.69 C793.65,493.08 793.92,503.83 794.91,504.44 C795.41,504.75 799.11,502.52 803.12,499.48 C807.13,496.44 810.89,494.13 811.46,494.36 C812.03,494.58 816.93,497.86 822.35,501.63 C827.77,505.41 833.01,508.97 833.99,509.54 C837.66,511.66 839.07,513.36 838.79,515.33 C838.57,516.87 839.27,517.56 841.75,518.21 C844.65,518.97 846.48,522.00 844.04,522.00 C843.51,522.00 839.35,524.55 834.79,527.67 C830.23,530.79 824.92,534.39 823.00,535.66 C821.08,536.93 819.01,538.38 818.41,538.88 C817.80,539.38 815.95,540.49 814.28,541.36 C812.61,542.22 808.82,545.11 805.87,547.78 C797.30,555.52 796.29,556.01 789.03,555.94 C785.44,555.90 781.38,555.43 780.00,554.88 ZM 795.90 550.55 C798.72,549.09 808.00,539.30 808.00,537.78 C808.00,537.33 809.11,537.24 810.46,537.58 C812.13,538.00 813.89,537.50 815.97,536.02 C819.53,533.49 819.12,532.00 814.88,532.00 C811.14,532.00 808.93,530.84 802.11,525.30 C799.15,522.89 796.22,521.09 795.61,521.29 C794.33,521.72 793.08,532.93 794.24,533.65 C794.67,533.91 795.66,535.38 796.45,536.91 C797.76,539.45 797.70,539.96 795.69,542.83 C793.76,545.59 792.93,545.97 788.75,545.98 C783.09,546.00 780.00,543.55 780.00,539.02 C780.00,536.93 780.76,535.55 782.56,534.37 C784.33,533.21 784.75,532.46 783.91,531.95 C783.15,531.47 782.90,529.78 783.23,527.30 C783.56,524.86 783.26,522.71 782.44,521.58 C781.21,519.90 780.65,520.17 774.51,525.38 C768.19,530.74 766.53,531.59 761.08,532.22 C759.75,532.37 758.50,532.97 758.31,533.56 C757.87,534.90 765.09,539.00 767.89,539.00 C769.05,539.00 770.00,539.35 770.00,539.79 C770.00,541.30 777.53,548.96 780.50,550.47 C784.30,552.39 792.25,552.44 795.90,550.55 ZM 772.57 511.97 C775.23,510.96 775.24,510.92 773.38,508.87 C770.90,506.13 766.16,503.73 764.48,504.37 C762.41,505.16 764.21,510.28 767.07,511.74 C770.01,513.23 769.34,513.20 772.57,511.97 ZM 811.52 509.97 C814.07,507.15 813.02,504.46 809.46,504.71 C806.70,504.91 802.00,508.87 802.00,510.99 C802.00,512.01 805.75,512.73 808.19,512.18 C809.11,511.97 810.61,510.98 811.52,509.97 ZM 748.30 468.50 C747.60,458.53 748.13,458.13 754.89,463.51 C759.62,467.27 761.17,467.71 762.80,465.74 C763.58,464.80 762.78,463.42 759.68,460.38 C755.67,456.45 748.24,451.00 746.89,451.00 C745.44,451.00 743.80,457.25 743.80,462.75 C743.80,469.62 745.77,477.00 747.61,477.00 C748.61,477.00 748.77,475.09 748.30,468.50 ZM 831.99 469.82 C834.19,462.85 834.20,462.49 832.58,457.32 C831.19,452.94 830.50,452.00 828.62,452.00 C826.01,452.00 814.00,462.36 814.00,464.62 C814.00,467.25 817.03,467.34 819.81,464.78 C824.71,460.27 827.24,458.95 828.68,460.15 C830.45,461.62 830.35,465.93 828.44,470.49 C826.90,474.17 827.07,477.00 828.83,477.00 C829.32,477.00 830.74,473.77 831.99,469.82 ZM 618.00 462.10 C614.67,460.36 600.47,452.25 593.00,447.81 C591.08,446.67 586.80,444.26 583.50,442.47 C573.17,436.85 571.01,435.52 571.01,434.75 C571.00,434.34 594.96,433.90 624.25,433.78 C653.54,433.66 679.53,433.53 682.00,433.48 C684.47,433.43 687.08,433.58 687.79,433.82 C689.74,434.47 710.13,461.97 709.46,463.06 C709.11,463.63 691.53,463.98 665.19,463.96 C624.91,463.92 621.23,463.78 618.00,462.10 ZM 728.99 449.32 C719.41,437.19 717.02,433.77 717.56,432.90 C717.87,432.41 726.33,432.00 736.37,432.00 L 754.63 432.00 L 757.18 434.75 C760.16,437.96 770.00,451.49 770.00,452.39 C770.00,453.62 768.42,452.94 765.97,450.68 C764.59,449.40 762.16,447.50 760.56,446.45 C757.59,444.50 744.71,440.04 741.99,440.01 C740.48,440.00 736.00,449.91 736.00,453.29 C736.00,456.45 733.50,455.04 728.99,449.32 ZM 803.64 454.22 C802.97,453.15 808.68,444.42 814.73,437.25 L 819.15 432.00 L 837.58 432.00 C850.13,432.00 856.00,432.35 856.00,433.08 C856.00,434.13 848.77,444.53 844.32,449.88 C841.67,453.06 840.64,452.32 838.14,445.41 C836.13,439.84 836.37,439.89 825.40,442.70 C820.52,443.94 816.93,445.63 813.90,448.09 C807.52,453.28 804.26,455.23 803.64,454.22 Z" fill="#FFFFFF"/>
    </g>
</svg>